<svg width="702" height="239" viewBox="0 0 702 239" fill="none" xmlns="http://www.w3.org/2000/svg">
<path d="M280.043 149.125C280.049 148.28 279.774 147.633 279.22 147.186C278.671 146.738 277.904 146.514 276.918 146.514C276.212 146.514 275.582 146.626 275.028 146.85C274.479 147.068 274.031 147.37 273.683 147.757C273.342 148.137 273.132 148.571 273.053 149.058C272.98 149.467 273.017 149.819 273.162 150.116C273.314 150.413 273.529 150.662 273.809 150.864C274.095 151.06 274.409 151.225 274.75 151.359C275.092 151.488 275.422 151.594 275.742 151.678L277.355 152.115C277.876 152.249 278.405 152.431 278.942 152.661C279.48 152.89 279.965 153.192 280.396 153.568C280.827 153.943 281.149 154.407 281.362 154.961C281.575 155.516 281.617 156.179 281.488 156.952C281.32 157.926 280.925 158.791 280.303 159.546C279.682 160.302 278.861 160.898 277.842 161.335C276.823 161.772 275.641 161.99 274.297 161.99C273.008 161.99 271.925 161.786 271.045 161.377C270.172 160.968 269.53 160.389 269.121 159.639C268.713 158.883 268.567 157.987 268.685 156.952H271.297C271.236 157.573 271.348 158.091 271.633 158.505C271.925 158.914 272.334 159.219 272.86 159.421C273.386 159.616 273.983 159.714 274.649 159.714C275.389 159.714 276.064 159.6 276.674 159.37C277.285 159.135 277.789 158.81 278.186 158.396C278.584 157.976 278.828 157.486 278.917 156.926C279.007 156.417 278.934 156 278.699 155.675C278.469 155.351 278.122 155.082 277.657 154.869C277.198 154.656 276.674 154.469 276.086 154.306L274.145 153.752C272.829 153.377 271.832 152.826 271.155 152.098C270.477 151.37 270.233 150.407 270.424 149.209C270.592 148.218 271.006 147.353 271.667 146.614C272.328 145.876 273.151 145.302 274.137 144.893C275.123 144.479 276.192 144.272 277.346 144.272C278.511 144.272 279.503 144.479 280.32 144.893C281.138 145.307 281.743 145.878 282.135 146.606C282.527 147.334 282.664 148.174 282.547 149.125H280.043Z" fill="black"/>
<path d="M283.599 161.705L285.75 148.806H288.262L286.111 161.705H283.599ZM287.531 146.791C287.094 146.791 286.724 146.645 286.422 146.354C286.125 146.057 285.988 145.705 286.01 145.296C286.032 144.882 286.206 144.529 286.531 144.238C286.856 143.941 287.234 143.793 287.665 143.793C288.102 143.793 288.469 143.941 288.766 144.238C289.062 144.529 289.203 144.882 289.186 145.296C289.163 145.705 288.99 146.057 288.665 146.354C288.346 146.645 287.968 146.791 287.531 146.791Z" fill="black"/>
<path d="M300.79 151.955L298.446 152.358C298.396 152.062 298.292 151.782 298.135 151.519C297.984 151.255 297.751 151.043 297.438 150.88C297.124 150.712 296.707 150.628 296.186 150.628C295.464 150.628 294.831 150.794 294.287 151.124C293.75 151.454 293.442 151.874 293.363 152.383C293.29 152.798 293.388 153.134 293.657 153.391C293.926 153.643 294.399 153.853 295.077 154.021L297.06 154.491C298.202 154.766 299.02 155.194 299.513 155.776C300.011 156.353 300.185 157.103 300.034 158.027C299.905 158.794 299.569 159.474 299.026 160.067C298.488 160.661 297.799 161.125 296.959 161.461C296.119 161.797 295.184 161.965 294.153 161.965C292.686 161.965 291.543 161.654 290.725 161.033C289.908 160.411 289.487 159.532 289.465 158.396L291.952 158.027C291.997 158.659 292.223 159.138 292.632 159.462C293.047 159.782 293.621 159.941 294.355 159.941C295.195 159.947 295.898 159.77 296.463 159.412C297.029 159.054 297.351 158.62 297.429 158.111C297.497 157.713 297.407 157.383 297.161 157.12C296.92 156.857 296.494 156.655 295.884 156.515L293.8 156.036C292.635 155.762 291.812 155.32 291.33 154.71C290.848 154.099 290.686 153.332 290.843 152.409C290.966 151.653 291.285 150.995 291.801 150.435C292.321 149.87 292.98 149.43 293.775 149.117C294.57 148.798 295.45 148.638 296.413 148.638C297.819 148.638 298.874 148.941 299.58 149.545C300.286 150.144 300.689 150.948 300.79 151.955Z" fill="black"/>
<path d="M310.348 148.806L310.021 150.822H302.972L303.3 148.806H310.348ZM305.694 145.716H308.206L306.173 157.917C306.095 158.404 306.109 158.771 306.215 159.017C306.321 159.258 306.484 159.423 306.702 159.513C306.926 159.597 307.176 159.639 307.45 159.639C307.652 159.639 307.828 159.625 307.979 159.597C308.131 159.569 308.251 159.546 308.341 159.53L308.475 161.604C308.307 161.66 308.08 161.716 307.794 161.772C307.514 161.833 307.173 161.867 306.77 161.873C306.109 161.884 305.512 161.766 304.98 161.52C304.448 161.268 304.05 160.887 303.787 160.378C303.524 159.863 303.459 159.216 303.594 158.438L305.694 145.716Z" fill="black"/>
<path d="M316.366 161.965C315.1 161.965 314.053 161.693 313.224 161.15C312.4 160.602 311.824 159.832 311.493 158.841C311.163 157.845 311.109 156.677 311.334 155.339C311.552 154.018 311.992 152.854 312.653 151.846C313.313 150.838 314.137 150.052 315.122 149.486C316.114 148.921 317.209 148.638 318.407 148.638C319.135 148.638 319.822 148.759 320.466 148.999C321.115 149.24 321.667 149.618 322.121 150.133C322.574 150.648 322.888 151.317 323.062 152.14C323.241 152.957 323.235 153.951 323.045 155.121L322.902 156.011H312.636L312.93 154.13H320.726C320.844 153.47 320.813 152.885 320.634 152.375C320.454 151.86 320.146 151.454 319.71 151.157C319.278 150.861 318.735 150.712 318.08 150.712C317.408 150.712 316.78 150.889 316.198 151.241C315.615 151.594 315.128 152.045 314.736 152.593C314.35 153.136 314.106 153.696 314.005 154.273L313.711 155.994C313.565 156.935 313.591 157.691 313.787 158.262C313.988 158.833 314.341 159.247 314.845 159.504C315.349 159.762 315.979 159.891 316.736 159.891C317.223 159.891 317.674 159.824 318.088 159.689C318.508 159.549 318.881 159.345 319.205 159.076C319.53 158.802 319.802 158.46 320.02 158.052L322.322 158.48C322.014 159.18 321.572 159.793 320.995 160.319C320.418 160.84 319.738 161.246 318.953 161.537C318.175 161.822 317.312 161.965 316.366 161.965Z" fill="black"/>
<path d="M324.778 161.705L326.928 148.806H329.339L328.987 150.906H329.146C329.538 150.195 330.07 149.64 330.743 149.243C331.42 148.84 332.188 148.638 333.044 148.638C333.896 148.638 334.582 148.84 335.103 149.243C335.629 149.646 335.974 150.2 336.136 150.906H336.271C336.685 150.211 337.265 149.66 338.01 149.251C338.754 148.843 339.592 148.638 340.522 148.638C341.681 148.638 342.571 149.008 343.193 149.747C343.82 150.48 344.011 151.583 343.764 153.055L342.319 161.705H339.799L341.21 153.29C341.35 152.411 341.216 151.779 340.807 151.393C340.398 151.001 339.863 150.805 339.203 150.805C338.385 150.805 337.707 151.057 337.169 151.561C336.632 152.059 336.301 152.7 336.178 153.484L334.792 161.705H332.297L333.733 153.131C333.845 152.425 333.717 151.863 333.347 151.443C332.983 151.018 332.451 150.805 331.751 150.805C331.275 150.805 330.813 150.931 330.364 151.183C329.922 151.435 329.544 151.782 329.23 152.224C328.917 152.666 328.712 153.176 328.617 153.752L327.29 161.705H324.778Z" fill="black"/>
<path d="M352.14 161.705L354.997 144.507H361.13C362.463 144.507 363.527 144.75 364.322 145.237C365.123 145.724 365.672 146.388 365.969 147.228C366.271 148.067 366.336 149.016 366.162 150.074C365.983 151.132 365.602 152.084 365.02 152.929C364.443 153.769 363.673 154.435 362.709 154.928C361.746 155.415 360.601 155.658 359.273 155.658H355.047L355.409 153.458H359.391C360.236 153.458 360.948 153.313 361.525 153.022C362.107 152.725 362.564 152.322 362.894 151.812C363.225 151.297 363.44 150.718 363.541 150.074C363.647 149.419 363.619 148.843 363.457 148.344C363.295 147.841 362.973 147.446 362.491 147.16C362.015 146.875 361.348 146.732 360.491 146.732H357.232L354.736 161.705H352.14Z" fill="black"/>
<path d="M372.392 161.965C371.126 161.965 370.079 161.693 369.25 161.15C368.426 160.602 367.849 159.832 367.519 158.841C367.189 157.845 367.135 156.677 367.359 155.339C367.578 154.018 368.017 152.854 368.678 151.846C369.339 150.838 370.163 150.052 371.148 149.486C372.14 148.921 373.235 148.638 374.433 148.638C375.161 148.638 375.847 148.759 376.492 148.999C377.141 149.24 377.693 149.618 378.147 150.133C378.6 150.648 378.914 151.317 379.088 152.14C379.267 152.957 379.261 153.951 379.071 155.121L378.928 156.011H368.662L368.956 154.13H376.752C376.87 153.47 376.839 152.885 376.66 152.375C376.48 151.86 376.172 151.454 375.735 151.157C375.304 150.861 374.761 150.712 374.106 150.712C373.433 150.712 372.806 150.889 372.224 151.241C371.641 151.594 371.154 152.045 370.762 152.593C370.375 153.136 370.132 153.696 370.031 154.273L369.737 155.994C369.591 156.935 369.616 157.691 369.813 158.262C370.014 158.833 370.367 159.247 370.871 159.504C371.375 159.762 372.005 159.891 372.761 159.891C373.249 159.891 373.7 159.824 374.114 159.689C374.534 159.549 374.906 159.345 375.231 159.076C375.556 158.802 375.828 158.46 376.046 158.052L378.348 158.48C378.04 159.18 377.598 159.793 377.021 160.319C376.444 160.84 375.763 161.246 374.979 161.537C374.201 161.822 373.338 161.965 372.392 161.965Z" fill="black"/>
<path d="M386.163 144.507L383.307 161.705H380.795L383.651 144.507H386.163Z" fill="black"/>
<path d="M390.408 161.99C389.59 161.99 388.876 161.839 388.266 161.537C387.655 161.229 387.205 160.784 386.913 160.201C386.622 159.619 386.546 158.905 386.686 158.06C386.81 157.332 387.05 156.733 387.409 156.263C387.773 155.793 388.215 155.421 388.736 155.146C389.257 154.866 389.823 154.656 390.433 154.516C391.044 154.376 391.66 154.273 392.282 154.206C393.066 154.116 393.701 154.041 394.189 153.979C394.682 153.917 395.051 153.822 395.298 153.693C395.544 153.559 395.693 153.341 395.743 153.038V152.98C395.861 152.252 395.754 151.687 395.424 151.283C395.099 150.875 394.533 150.67 393.727 150.67C392.887 150.67 392.181 150.855 391.61 151.225C391.044 151.594 390.627 152.008 390.358 152.467L388.106 151.93C388.51 151.146 389.022 150.514 389.644 150.032C390.271 149.545 390.957 149.192 391.702 148.974C392.447 148.75 393.209 148.638 393.987 148.638C394.502 148.638 395.037 148.7 395.592 148.823C396.146 148.941 396.65 149.159 397.104 149.478C397.563 149.797 397.905 150.253 398.129 150.847C398.353 151.435 398.387 152.199 398.23 153.139L396.81 161.705H394.357L394.659 159.941H394.558C394.346 160.266 394.049 160.585 393.668 160.898C393.293 161.212 392.833 161.472 392.29 161.679C391.747 161.887 391.119 161.99 390.408 161.99ZM391.265 159.975C391.965 159.975 392.584 159.838 393.122 159.563C393.665 159.289 394.105 158.931 394.441 158.488C394.777 158.041 394.987 157.562 395.071 157.052L395.348 155.39C395.242 155.479 395.054 155.561 394.785 155.633C394.522 155.706 394.225 155.77 393.895 155.826C393.564 155.882 393.239 155.93 392.92 155.969C392.607 156.008 392.346 156.045 392.139 156.078C391.646 156.14 391.184 156.243 390.753 156.389C390.327 156.535 389.971 156.745 389.686 157.019C389.4 157.288 389.221 157.646 389.148 158.094C389.047 158.715 389.196 159.185 389.593 159.504C389.997 159.818 390.554 159.975 391.265 159.975Z" fill="black"/>
<path d="M399.358 166.541L402.332 148.806H404.785L404.44 150.897H404.65C404.841 150.628 405.098 150.318 405.423 149.965C405.754 149.612 406.188 149.304 406.726 149.041C407.263 148.773 407.933 148.638 408.733 148.638C409.775 148.638 410.657 148.901 411.38 149.428C412.102 149.954 412.618 150.712 412.926 151.703C413.234 152.694 413.273 153.887 413.043 155.281C412.814 156.675 412.382 157.87 411.749 158.866C411.117 159.857 410.349 160.621 409.448 161.159C408.551 161.691 407.58 161.957 406.532 161.957C405.748 161.957 405.129 161.825 404.676 161.562C404.228 161.299 403.894 160.991 403.676 160.638C403.457 160.285 403.292 159.972 403.18 159.698H403.029L401.886 166.541H399.358ZM403.718 155.255C403.572 156.162 403.572 156.957 403.718 157.64C403.864 158.323 404.155 158.858 404.592 159.244C405.034 159.625 405.617 159.815 406.339 159.815C407.09 159.815 407.748 159.616 408.313 159.219C408.879 158.816 409.347 158.27 409.716 157.581C410.092 156.893 410.352 156.118 410.498 155.255C410.638 154.404 410.635 153.64 410.489 152.963C410.349 152.286 410.061 151.751 409.624 151.359C409.187 150.967 408.591 150.771 407.834 150.771C407.101 150.771 406.451 150.959 405.885 151.334C405.325 151.709 404.86 152.232 404.491 152.904C404.121 153.576 403.864 154.36 403.718 155.255Z" fill="black"/>
<path d="M420.275 161.965C419.048 161.965 418.023 161.685 417.2 161.125C416.376 160.56 415.797 159.77 415.461 158.757C415.13 157.738 415.074 156.554 415.293 155.205C415.506 153.884 415.934 152.731 416.578 151.745C417.228 150.76 418.04 149.996 419.014 149.453C419.995 148.91 421.084 148.638 422.283 148.638C423.509 148.638 424.531 148.921 425.349 149.486C426.172 150.052 426.752 150.844 427.088 151.863C427.424 152.882 427.483 154.069 427.264 155.423C427.052 156.733 426.618 157.881 425.962 158.866C425.313 159.846 424.5 160.607 423.526 161.15C422.551 161.693 421.468 161.965 420.275 161.965ZM420.417 159.857C421.224 159.857 421.927 159.644 422.526 159.219C423.131 158.794 423.624 158.228 424.005 157.523C424.386 156.817 424.646 156.045 424.786 155.205C424.915 154.393 424.912 153.652 424.778 152.98C424.649 152.302 424.369 151.759 423.938 151.351C423.506 150.942 422.907 150.738 422.14 150.738C421.333 150.738 420.625 150.953 420.014 151.384C419.409 151.81 418.916 152.378 418.536 153.089C418.16 153.8 417.905 154.575 417.771 155.415C417.642 156.221 417.642 156.963 417.771 157.64C417.9 158.312 418.18 158.849 418.611 159.253C419.042 159.656 419.645 159.857 420.417 159.857Z" fill="black"/>
<path d="M429.035 161.705L431.186 148.806H433.614L433.269 150.855H433.404C433.751 150.161 434.258 149.615 434.924 149.218C435.591 148.815 436.302 148.613 437.058 148.613C437.221 148.613 437.405 148.619 437.613 148.63C437.82 148.635 437.988 148.649 438.117 148.672L437.714 151.074C437.618 151.046 437.445 151.015 437.193 150.981C436.941 150.942 436.68 150.922 436.411 150.922C435.823 150.922 435.277 151.048 434.773 151.3C434.269 151.547 433.846 151.891 433.505 152.333C433.163 152.77 432.942 153.268 432.841 153.828L431.547 161.705H429.035Z" fill="black"/>
<path d="M441.767 161.99C440.949 161.99 440.235 161.839 439.625 161.537C439.014 161.229 438.563 160.784 438.272 160.201C437.981 159.619 437.905 158.905 438.045 158.06C438.169 157.332 438.409 156.733 438.768 156.263C439.132 155.793 439.574 155.421 440.095 155.146C440.616 154.866 441.182 154.656 441.792 154.516C442.403 154.376 443.019 154.273 443.641 154.206C444.425 154.116 445.06 154.041 445.548 153.979C446.041 153.917 446.41 153.822 446.657 153.693C446.903 153.559 447.052 153.341 447.102 153.038V152.98C447.22 152.252 447.113 151.687 446.783 151.283C446.458 150.875 445.892 150.67 445.086 150.67C444.246 150.67 443.54 150.855 442.969 151.225C442.403 151.594 441.986 152.008 441.717 152.467L439.465 151.93C439.868 151.146 440.381 150.514 441.003 150.032C441.63 149.545 442.316 149.192 443.061 148.974C443.806 148.75 444.568 148.638 445.346 148.638C445.861 148.638 446.396 148.7 446.951 148.823C447.505 148.941 448.009 149.159 448.463 149.478C448.922 149.797 449.264 150.253 449.488 150.847C449.712 151.435 449.746 152.199 449.589 153.139L448.169 161.705H445.716L446.018 159.941H445.917C445.705 160.266 445.408 160.585 445.027 160.898C444.652 161.212 444.192 161.472 443.649 161.679C443.106 161.887 442.478 161.99 441.767 161.99ZM442.624 159.975C443.324 159.975 443.943 159.838 444.481 159.563C445.024 159.289 445.464 158.931 445.8 158.488C446.136 158.041 446.346 157.562 446.43 157.052L446.707 155.39C446.601 155.479 446.413 155.561 446.144 155.633C445.881 155.706 445.584 155.77 445.254 155.826C444.923 155.882 444.598 155.93 444.279 155.969C443.965 156.008 443.705 156.045 443.498 156.078C443.005 156.14 442.543 156.243 442.112 156.389C441.686 156.535 441.33 156.745 441.045 157.019C440.759 157.288 440.58 157.646 440.507 158.094C440.406 158.715 440.555 159.185 440.952 159.504C441.355 159.818 441.913 159.975 442.624 159.975Z" fill="black"/>
<path d="M455.295 154.046L454.035 161.705H451.523L453.674 148.806H456.085L455.732 150.906H455.892C456.301 150.217 456.858 149.668 457.564 149.26C458.275 148.845 459.115 148.638 460.084 148.638C460.958 148.638 461.691 148.823 462.285 149.192C462.884 149.556 463.307 150.099 463.554 150.822C463.806 151.544 463.845 152.437 463.671 153.5L462.294 161.705H459.782L461.101 153.803C461.252 152.868 461.129 152.137 460.731 151.611C460.339 151.079 459.714 150.813 458.857 150.813C458.275 150.813 457.734 150.939 457.236 151.191C456.743 151.443 456.326 151.812 455.984 152.3C455.648 152.781 455.418 153.363 455.295 154.046Z" fill="black"/>
<path d="M472.117 161.705L474.973 144.507H481.106C482.439 144.507 483.503 144.75 484.298 145.237C485.099 145.724 485.648 146.388 485.945 147.228C486.248 148.067 486.312 149.016 486.138 150.074C485.959 151.132 485.578 152.084 484.996 152.929C484.419 153.769 483.649 154.435 482.685 154.928C481.722 155.415 480.577 155.658 479.249 155.658H475.023L475.385 153.458H479.367C480.213 153.458 480.924 153.313 481.501 153.022C482.083 152.725 482.54 152.322 482.87 151.812C483.201 151.297 483.416 150.718 483.517 150.074C483.624 149.419 483.596 148.843 483.433 148.344C483.271 147.841 482.949 147.446 482.467 147.16C481.991 146.875 481.324 146.732 480.468 146.732H477.208L474.713 161.705H472.117Z" fill="black"/>
<path d="M487.002 161.705L489.152 148.806H491.58L491.236 150.855H491.37C491.717 150.161 492.224 149.615 492.891 149.218C493.557 148.815 494.269 148.613 495.025 148.613C495.187 148.613 495.372 148.619 495.579 148.63C495.787 148.635 495.955 148.649 496.083 148.672L495.68 151.074C495.585 151.046 495.411 151.015 495.159 150.981C494.907 150.942 494.647 150.922 494.378 150.922C493.79 150.922 493.244 151.048 492.74 151.3C492.236 151.547 491.813 151.891 491.471 152.333C491.129 152.77 490.908 153.268 490.807 153.828L489.514 161.705H487.002Z" fill="black"/>
<path d="M501.16 161.965C499.933 161.965 498.908 161.685 498.085 161.125C497.262 160.56 496.682 159.77 496.346 158.757C496.015 157.738 495.959 156.554 496.178 155.205C496.391 153.884 496.819 152.731 497.463 151.745C498.113 150.76 498.925 149.996 499.9 149.453C500.88 148.91 501.969 148.638 503.168 148.638C504.394 148.638 505.416 148.921 506.234 149.486C507.057 150.052 507.637 150.844 507.973 151.863C508.309 152.882 508.368 154.069 508.15 155.423C507.937 156.733 507.503 157.881 506.847 158.866C506.198 159.846 505.386 160.607 504.411 161.15C503.437 161.693 502.353 161.965 501.16 161.965ZM501.303 159.857C502.109 159.857 502.812 159.644 503.411 159.219C504.016 158.794 504.509 158.228 504.89 157.523C505.271 156.817 505.531 156.045 505.671 155.205C505.8 154.393 505.797 153.652 505.663 152.98C505.534 152.302 505.254 151.759 504.823 151.351C504.391 150.942 503.792 150.738 503.025 150.738C502.218 150.738 501.51 150.953 500.899 151.384C500.294 151.81 499.802 152.378 499.421 153.089C499.045 153.8 498.791 154.575 498.656 155.415C498.527 156.221 498.527 156.963 498.656 157.64C498.785 158.312 499.065 158.849 499.496 159.253C499.928 159.656 500.53 159.857 501.303 159.857Z" fill="black"/>
<path d="M514.524 166.81C513.494 166.81 512.631 166.676 511.936 166.407C511.248 166.138 510.704 165.783 510.307 165.341C509.915 164.898 509.643 164.414 509.492 163.888L511.81 162.998C511.923 163.244 512.079 163.504 512.281 163.779C512.483 164.059 512.782 164.297 513.18 164.493C513.583 164.688 514.135 164.786 514.835 164.786C515.787 164.786 516.619 164.554 517.33 164.089C518.041 163.63 518.481 162.897 518.649 161.889L519.044 159.353H518.884C518.694 159.628 518.431 159.933 518.095 160.269C517.759 160.605 517.325 160.896 516.792 161.142C516.26 161.388 515.599 161.511 514.81 161.511C513.79 161.511 512.911 161.274 512.172 160.798C511.438 160.316 510.912 159.608 510.592 158.673C510.273 157.733 510.228 156.577 510.458 155.205C510.682 153.833 511.108 152.658 511.735 151.678C512.368 150.698 513.135 149.948 514.037 149.428C514.944 148.901 515.916 148.638 516.952 148.638C517.753 148.638 518.377 148.773 518.826 149.041C519.279 149.304 519.615 149.612 519.834 149.965C520.052 150.318 520.212 150.628 520.313 150.897H520.497L520.842 148.806H523.303L521.119 161.99C520.94 163.099 520.534 164.008 519.901 164.719C519.274 165.43 518.492 165.956 517.557 166.298C516.627 166.639 515.616 166.81 514.524 166.81ZM515.667 159.429C516.384 159.429 517.022 159.261 517.582 158.925C518.148 158.584 518.618 158.097 518.994 157.464C519.369 156.826 519.629 156.062 519.775 155.171C519.92 154.304 519.912 153.54 519.75 152.879C519.593 152.218 519.288 151.703 518.834 151.334C518.386 150.959 517.801 150.771 517.078 150.771C516.316 150.771 515.655 150.967 515.095 151.359C514.535 151.745 514.079 152.272 513.726 152.938C513.379 153.604 513.135 154.348 512.995 155.171C512.861 156.017 512.863 156.759 513.003 157.397C513.149 158.035 513.44 158.533 513.877 158.891C514.314 159.25 514.911 159.429 515.667 159.429Z" fill="black"/>
<path d="M524.522 161.705L526.672 148.806H529.1L528.756 150.855H528.89C529.237 150.161 529.744 149.615 530.411 149.218C531.077 148.815 531.789 148.613 532.545 148.613C532.707 148.613 532.892 148.619 533.099 148.63C533.307 148.635 533.475 148.649 533.603 148.672L533.2 151.074C533.105 151.046 532.931 151.015 532.679 150.981C532.427 150.942 532.167 150.922 531.898 150.922C531.31 150.922 530.764 151.048 530.26 151.3C529.756 151.547 529.333 151.891 528.991 152.333C528.649 152.77 528.428 153.268 528.327 153.828L527.034 161.705H524.522Z" fill="black"/>
<path d="M537.254 161.99C536.436 161.99 535.722 161.839 535.111 161.537C534.501 161.229 534.05 160.784 533.759 160.201C533.468 159.619 533.392 158.905 533.532 158.06C533.655 157.332 533.896 156.733 534.254 156.263C534.618 155.793 535.061 155.421 535.582 155.146C536.103 154.866 536.668 154.656 537.279 154.516C537.889 154.376 538.505 154.273 539.127 154.206C539.911 154.116 540.547 154.041 541.034 153.979C541.527 153.917 541.897 153.822 542.143 153.693C542.39 153.559 542.538 153.341 542.588 153.038V152.98C542.706 152.252 542.6 151.687 542.269 151.283C541.944 150.875 541.379 150.67 540.572 150.67C539.732 150.67 539.026 150.855 538.455 151.225C537.889 151.594 537.472 152.008 537.203 152.467L534.952 151.93C535.355 151.146 535.867 150.514 536.489 150.032C537.116 149.545 537.803 149.192 538.547 148.974C539.292 148.75 540.054 148.638 540.833 148.638C541.348 148.638 541.883 148.7 542.437 148.823C542.992 148.941 543.496 149.159 543.949 149.478C544.409 149.797 544.75 150.253 544.974 150.847C545.198 151.435 545.232 152.199 545.075 153.139L543.655 161.705H541.202L541.505 159.941H541.404C541.191 160.266 540.894 160.585 540.513 160.898C540.138 161.212 539.679 161.472 539.136 161.679C538.592 161.887 537.965 161.99 537.254 161.99ZM538.111 159.975C538.811 159.975 539.43 159.838 539.967 159.563C540.511 159.289 540.95 158.931 541.286 158.488C541.622 158.041 541.832 157.562 541.916 157.052L542.194 155.39C542.087 155.479 541.9 155.561 541.631 155.633C541.368 155.706 541.071 155.77 540.74 155.826C540.41 155.882 540.085 155.93 539.766 155.969C539.452 156.008 539.192 156.045 538.984 156.078C538.491 156.14 538.029 156.243 537.598 156.389C537.172 156.535 536.817 156.745 536.531 157.019C536.246 157.288 536.066 157.646 535.994 158.094C535.893 158.715 536.041 159.185 536.439 159.504C536.842 159.818 537.399 159.975 538.111 159.975Z" fill="black"/>
<path d="M547.01 161.705L549.16 148.806H551.572L551.219 150.906H551.378C551.77 150.195 552.302 149.64 552.975 149.243C553.652 148.84 554.42 148.638 555.276 148.638C556.128 148.638 556.814 148.84 557.335 149.243C557.861 149.646 558.206 150.2 558.368 150.906H558.503C558.917 150.211 559.497 149.66 560.242 149.251C560.987 148.843 561.824 148.638 562.754 148.638C563.913 148.638 564.804 149.008 565.425 149.747C566.052 150.48 566.243 151.583 565.996 153.055L564.551 161.705H562.031L563.442 153.29C563.583 152.411 563.448 151.779 563.039 151.393C562.63 151.001 562.096 150.805 561.435 150.805C560.617 150.805 559.939 151.057 559.401 151.561C558.864 152.059 558.533 152.7 558.41 153.484L557.024 161.705H554.529L555.965 153.131C556.077 152.425 555.949 151.863 555.579 151.443C555.215 151.018 554.683 150.805 553.983 150.805C553.507 150.805 553.045 150.931 552.596 151.183C552.154 151.435 551.776 151.782 551.462 152.224C551.149 152.666 550.944 153.176 550.849 153.752L549.522 161.705H547.01Z" fill="black"/>
<path d="M574.373 161.705L577.229 144.507H583.362C584.695 144.507 585.759 144.75 586.554 145.237C587.355 145.724 587.904 146.388 588.201 147.228C588.503 148.067 588.568 149.016 588.394 150.074C588.215 151.132 587.834 152.084 587.252 152.929C586.675 153.769 585.905 154.435 584.941 154.928C583.978 155.415 582.833 155.658 581.505 155.658H577.279L577.641 153.458H581.623C582.469 153.458 583.18 153.313 583.757 153.022C584.339 152.725 584.796 152.322 585.126 151.812C585.457 151.297 585.672 150.718 585.773 150.074C585.879 149.419 585.851 148.843 585.689 148.344C585.527 147.841 585.205 147.446 584.723 147.16C584.247 146.875 583.58 146.732 582.723 146.732H579.464L576.968 161.705H574.373Z" fill="black"/>
<path d="M594.624 161.965C593.358 161.965 592.311 161.693 591.482 161.15C590.658 160.602 590.081 159.832 589.751 158.841C589.421 157.845 589.367 156.677 589.591 155.339C589.81 154.018 590.249 152.854 590.91 151.846C591.571 150.838 592.395 150.052 593.38 149.486C594.372 148.921 595.467 148.638 596.665 148.638C597.393 148.638 598.079 148.759 598.724 148.999C599.373 149.24 599.925 149.618 600.379 150.133C600.832 150.648 601.146 151.317 601.32 152.14C601.499 152.957 601.493 153.951 601.303 155.121L601.16 156.011H590.894L591.188 154.13H598.984C599.102 153.47 599.071 152.885 598.892 152.375C598.712 151.86 598.404 151.454 597.967 151.157C597.536 150.861 596.993 150.712 596.338 150.712C595.665 150.712 595.038 150.889 594.456 151.241C593.873 151.594 593.386 152.045 592.994 152.593C592.607 153.136 592.364 153.696 592.263 154.273L591.969 155.994C591.823 156.935 591.848 157.691 592.045 158.262C592.246 158.833 592.599 159.247 593.103 159.504C593.607 159.762 594.237 159.891 594.993 159.891C595.481 159.891 595.932 159.824 596.346 159.689C596.766 159.549 597.139 159.345 597.463 159.076C597.788 158.802 598.06 158.46 598.278 158.052L600.58 158.48C600.272 159.18 599.83 159.793 599.253 160.319C598.676 160.84 597.995 161.246 597.211 161.537C596.433 161.822 595.57 161.965 594.624 161.965Z" fill="black"/>
<path d="M603.035 161.705L605.186 148.806H607.597L607.245 150.906H607.404C607.796 150.195 608.328 149.64 609 149.243C609.678 148.84 610.445 148.638 611.302 148.638C612.154 148.638 612.84 148.84 613.361 149.243C613.887 149.646 614.232 150.2 614.394 150.906H614.528C614.943 150.211 615.523 149.66 616.267 149.251C617.012 148.843 617.85 148.638 618.779 148.638C619.939 148.638 620.829 149.008 621.451 149.747C622.078 150.48 622.269 151.583 622.022 153.055L620.577 161.705H618.057L619.468 153.29C619.608 152.411 619.474 151.779 619.065 151.393C618.656 151.001 618.121 150.805 617.46 150.805C616.643 150.805 615.965 151.057 615.427 151.561C614.89 152.059 614.559 152.7 614.436 153.484L613.05 161.705H610.555L611.991 153.131C612.103 152.425 611.974 151.863 611.605 151.443C611.241 151.018 610.709 150.805 610.009 150.805C609.532 150.805 609.07 150.931 608.622 151.183C608.18 151.435 607.802 151.782 607.488 152.224C607.175 152.666 606.97 153.176 606.875 153.752L605.547 161.705H603.035Z" fill="black"/>
<path d="M629.464 161.965C628.198 161.965 627.151 161.693 626.322 161.15C625.498 160.602 624.921 159.832 624.591 158.841C624.261 157.845 624.207 156.677 624.431 155.339C624.65 154.018 625.089 152.854 625.75 151.846C626.411 150.838 627.235 150.052 628.22 149.486C629.212 148.921 630.307 148.638 631.505 148.638C632.233 148.638 632.919 148.759 633.564 148.999C634.213 149.24 634.765 149.618 635.219 150.133C635.672 150.648 635.986 151.317 636.16 152.14C636.339 152.957 636.333 153.951 636.143 155.121L636 156.011H625.734L626.028 154.13H633.824C633.942 153.47 633.911 152.885 633.732 152.375C633.552 151.86 633.244 151.454 632.807 151.157C632.376 150.861 631.833 150.712 631.178 150.712C630.505 150.712 629.878 150.889 629.296 151.241C628.713 151.594 628.226 152.045 627.834 152.593C627.447 153.136 627.204 153.696 627.103 154.273L626.809 155.994C626.663 156.935 626.688 157.691 626.885 158.262C627.086 158.833 627.439 159.247 627.943 159.504C628.447 159.762 629.077 159.891 629.833 159.891C630.321 159.891 630.772 159.824 631.186 159.689C631.606 159.549 631.979 159.345 632.303 159.076C632.628 158.802 632.9 158.46 633.118 158.052L635.42 158.48C635.112 159.18 634.67 159.793 634.093 160.319C633.516 160.84 632.835 161.246 632.051 161.537C631.273 161.822 630.41 161.965 629.464 161.965Z" fill="black"/>
<path d="M637.867 161.705L640.018 148.806H642.446L642.101 150.855H642.236C642.583 150.161 643.09 149.615 643.756 149.218C644.423 148.815 645.134 148.613 645.89 148.613C646.053 148.613 646.238 148.619 646.445 148.63C646.652 148.635 646.82 148.649 646.949 148.672L646.546 151.074C646.45 151.046 646.277 151.015 646.025 150.981C645.773 150.942 645.512 150.922 645.243 150.922C644.655 150.922 644.109 151.048 643.605 151.3C643.101 151.547 642.678 151.891 642.337 152.333C641.995 152.77 641.774 153.268 641.673 153.828L640.379 161.705H637.867Z" fill="black"/>
<path d="M646.993 161.705L649.144 148.806H651.656L649.505 161.705H646.993ZM650.925 146.791C650.488 146.791 650.118 146.645 649.816 146.354C649.519 146.057 649.382 145.705 649.404 145.296C649.426 144.882 649.6 144.529 649.925 144.238C650.25 143.941 650.628 143.793 651.059 143.793C651.496 143.793 651.863 143.941 652.16 144.238C652.457 144.529 652.597 144.882 652.58 145.296C652.557 145.705 652.384 146.057 652.059 146.354C651.74 146.645 651.362 146.791 650.925 146.791Z" fill="black"/>
<path d="M656.665 154.046L655.405 161.705H652.893L655.043 148.806H657.455L657.102 150.906H657.261C657.67 150.217 658.227 149.668 658.933 149.26C659.645 148.845 660.485 148.638 661.454 148.638C662.327 148.638 663.061 148.823 663.655 149.192C664.254 149.556 664.677 150.099 664.923 150.822C665.175 151.544 665.215 152.437 665.041 153.5L663.663 161.705H661.151L662.47 153.803C662.621 152.868 662.498 152.137 662.1 151.611C661.708 151.079 661.084 150.813 660.227 150.813C659.645 150.813 659.104 150.939 658.606 151.191C658.113 151.443 657.695 151.812 657.354 152.3C657.018 152.781 656.788 153.363 656.665 154.046Z" fill="black"/>
<path d="M675.198 148.806L674.87 150.822H667.822L668.149 148.806H675.198ZM670.544 145.716H673.056L671.023 157.917C670.944 158.404 670.958 158.771 671.065 159.017C671.171 159.258 671.333 159.423 671.552 159.513C671.776 159.597 672.025 159.639 672.3 159.639C672.501 159.639 672.678 159.625 672.829 159.597C672.98 159.569 673.101 159.546 673.19 159.53L673.325 161.604C673.157 161.66 672.93 161.716 672.644 161.772C672.364 161.833 672.022 161.867 671.619 161.873C670.958 161.884 670.362 161.766 669.83 161.52C669.298 161.268 668.9 160.887 668.637 160.378C668.373 159.863 668.309 159.216 668.443 158.438L670.544 145.716Z" fill="black"/>
<path d="M679.548 161.99C678.73 161.99 678.016 161.839 677.405 161.537C676.795 161.229 676.344 160.784 676.053 160.201C675.762 159.619 675.686 158.905 675.826 158.06C675.949 157.332 676.19 156.733 676.549 156.263C676.913 155.793 677.355 155.421 677.876 155.146C678.397 154.866 678.963 154.656 679.573 154.516C680.183 154.376 680.8 154.273 681.421 154.206C682.205 154.116 682.841 154.041 683.328 153.979C683.821 153.917 684.191 153.822 684.437 153.693C684.684 153.559 684.832 153.341 684.883 153.038V152.98C685 152.252 684.894 151.687 684.563 151.283C684.238 150.875 683.673 150.67 682.866 150.67C682.026 150.67 681.32 150.855 680.749 151.225C680.183 151.594 679.766 152.008 679.497 152.467L677.246 151.93C677.649 151.146 678.162 150.514 678.783 150.032C679.411 149.545 680.097 149.192 680.842 148.974C681.586 148.75 682.348 148.638 683.127 148.638C683.642 148.638 684.177 148.7 684.731 148.823C685.286 148.941 685.79 149.159 686.244 149.478C686.703 149.797 687.044 150.253 687.269 150.847C687.493 151.435 687.526 152.199 687.369 153.139L685.95 161.705H683.496L683.799 159.941H683.698C683.485 160.266 683.188 160.585 682.807 160.898C682.432 161.212 681.973 161.472 681.43 161.679C680.886 161.887 680.259 161.99 679.548 161.99ZM680.405 159.975C681.105 159.975 681.724 159.838 682.261 159.563C682.805 159.289 683.244 158.931 683.58 158.488C683.916 158.041 684.126 157.562 684.21 157.052L684.488 155.39C684.381 155.479 684.194 155.561 683.925 155.633C683.662 155.706 683.365 155.77 683.034 155.826C682.704 155.882 682.379 155.93 682.06 155.969C681.746 156.008 681.486 156.045 681.278 156.078C680.786 156.14 680.323 156.243 679.892 156.389C679.467 156.535 679.111 156.745 678.825 157.019C678.54 157.288 678.36 157.646 678.288 158.094C678.187 158.715 678.335 159.185 678.733 159.504C679.136 159.818 679.693 159.975 680.405 159.975Z" fill="black"/>
<path d="M693.076 154.046L691.816 161.705H689.304L692.16 144.507H694.639L693.58 150.906H693.74C694.148 150.206 694.697 149.654 695.386 149.251C696.081 148.843 696.932 148.638 697.94 148.638C698.825 148.638 699.567 148.82 700.167 149.184C700.771 149.548 701.197 150.091 701.444 150.813C701.696 151.53 701.735 152.425 701.561 153.5L700.183 161.705H697.671L698.982 153.803C699.139 152.857 699.016 152.123 698.612 151.603C698.209 151.076 697.579 150.813 696.722 150.813C696.123 150.813 695.568 150.939 695.059 151.191C694.555 151.443 694.129 151.812 693.782 152.3C693.434 152.781 693.199 153.363 693.076 154.046Z" fill="black"/>
<path d="M282.029 123.545C280.344 123.55 278.666 123.335 277.037 122.906C275.463 122.505 273.961 121.858 272.589 120.989C271.276 120.172 270.152 119.086 269.289 117.804C268.406 116.456 267.871 114.911 267.734 113.306H274.808C275.022 114.276 275.493 115.171 276.173 115.896C276.896 116.636 277.784 117.195 278.764 117.527C279.944 117.925 281.182 118.118 282.427 118.097C283.476 118.104 284.52 117.944 285.519 117.622C286.427 117.355 287.251 116.859 287.911 116.18C288.218 115.855 288.457 115.473 288.616 115.055C288.774 114.637 288.849 114.192 288.836 113.746C288.859 113.241 288.754 112.739 288.53 112.286C288.307 111.833 287.972 111.444 287.557 111.156C286.502 110.478 285.331 110.001 284.102 109.749L277.693 108.35C276.029 108.036 274.427 107.453 272.951 106.623C271.652 105.88 270.578 104.801 269.842 103.498C269.079 102.056 268.704 100.44 268.754 98.8099C268.696 96.8297 269.304 94.8873 270.481 93.2932C271.729 91.6934 273.389 90.4637 275.284 89.7362C277.455 88.8799 279.773 88.4575 282.107 88.493C284.59 88.4209 287.058 88.8954 289.337 89.883C291.156 90.6848 292.717 91.976 293.845 93.6126C294.88 95.1739 295.43 97.0062 295.426 98.879H288.516C288.477 97.8799 288.129 96.9173 287.522 96.1229C286.914 95.3286 286.076 94.7413 285.122 94.4414C284.087 94.1057 283.005 93.9424 281.917 93.9579C279.853 93.9579 278.341 94.3724 277.4 95.2098C276.961 95.559 276.606 96.0011 276.36 96.5043C276.113 97.0074 275.982 97.5591 275.975 98.1193C275.957 98.5931 276.045 99.0648 276.232 99.5007C276.418 99.9366 276.699 100.326 277.054 100.64C278.065 101.408 279.253 101.907 280.509 102.091L286.486 103.325C288.392 103.64 290.218 104.327 291.859 105.345C293.145 106.17 294.184 107.328 294.865 108.695C295.509 110.072 295.831 111.578 295.806 113.098C295.849 115.055 295.241 116.971 294.079 118.546C292.815 120.184 291.136 121.454 289.216 122.224C286.935 123.149 284.49 123.598 282.029 123.545V123.545Z" fill="black"/>
<path d="M301.878 123.096V88.9073H308.788V123.096H301.878Z" fill="black"/>
<path d="M316.432 123.096V88.9073H326.46L334.294 113.288L342.198 88.9073H352.2V123.096H345.221V96.9451L336.989 123.096H331.574L323.385 97.0832V123.096H316.432Z" fill="black"/>
<path d="M359.844 123.096V88.9074H372.429C374.725 88.8657 377.005 89.3039 379.123 90.1938C380.519 90.8612 381.763 91.8101 382.775 92.9808C383.787 94.1516 384.546 95.5189 385.005 96.9969C385.463 98.4749 385.611 100.032 385.438 101.569C385.266 103.107 384.777 104.593 384.003 105.933C382.976 107.553 381.499 108.84 379.753 109.636C377.732 110.534 375.538 110.973 373.327 110.923H366.814V123.096H359.844ZM366.754 105.553H373.172C373.958 105.581 374.741 105.448 375.474 105.161C376.206 104.875 376.872 104.441 377.43 103.886C377.969 103.346 378.394 102.701 378.677 101.992C378.961 101.283 379.098 100.523 379.08 99.7596C379.115 98.997 378.979 98.236 378.68 97.5335C378.381 96.8309 377.927 96.2049 377.352 95.7019C376.165 94.6957 374.65 94.1611 373.094 94.1997H366.728L366.754 105.553Z" fill="black"/>
<path d="M390.723 123.096V88.9073H414.217V94.7177H397.65V103.023H412.014V108.747H397.607V117.208H414.45V123.096H390.723Z" fill="black"/>
<path d="M420.885 123.096V88.9073H427.795V117.26H442.66V123.096H420.885Z" fill="black"/>
<path d="M458.881 123.096V88.9074H471.466C473.765 88.8665 476.048 89.3047 478.168 90.1938C479.564 90.862 480.807 91.8115 481.818 92.9826C482.829 94.1537 483.588 95.5211 484.045 96.9991C484.503 98.477 484.649 100.033 484.476 101.571C484.303 103.108 483.814 104.593 483.04 105.933C482.013 107.553 480.536 108.84 478.79 109.636C476.772 110.533 474.58 110.972 472.373 110.923H465.843V123.096H458.881ZM465.791 105.553H472.191C472.977 105.582 473.761 105.449 474.494 105.162C475.226 104.875 475.892 104.441 476.449 103.886C476.989 103.346 477.413 102.701 477.697 101.992C477.98 101.283 478.117 100.523 478.099 99.7597C478.135 98.997 477.998 98.2361 477.699 97.5335C477.4 96.831 476.946 96.2049 476.372 95.7019C475.186 94.6943 473.669 94.1595 472.113 94.1997H465.791V105.553Z" fill="black"/>
<path d="M489.76 123.096V88.9074H504.193C506.494 88.8208 508.784 89.2638 510.887 90.2024C512.515 90.9701 513.857 92.2334 514.722 93.8112C515.566 95.4517 515.987 97.2765 515.948 99.1208C515.987 100.682 515.693 102.233 515.085 103.671C514.573 104.843 513.823 105.895 512.882 106.761C511.992 107.569 510.992 108.247 509.911 108.773L516.303 123.096H509.134L503.554 109.93H496.644V123.096H489.76ZM496.67 104.603H502.984C504.585 104.689 506.159 104.158 507.38 103.118C507.91 102.634 508.329 102.04 508.608 101.378C508.887 100.717 509.019 100.002 508.995 99.2848C509.03 98.5846 508.907 97.8856 508.637 97.2388C508.366 96.5921 507.955 96.0139 507.432 95.5465C506.335 94.6105 504.926 94.1205 503.485 94.1738H496.67V104.603Z" fill="black"/>
<path d="M536.177 123.545C533.24 123.623 530.338 122.892 527.79 121.43C525.412 119.997 523.51 117.895 522.323 115.386C521.044 112.423 520.384 109.229 520.384 106.002C520.384 102.774 521.044 99.5805 522.323 96.617C523.524 94.0956 525.437 91.9801 527.825 90.5304C530.369 89.1316 533.226 88.3981 536.13 88.3981C539.034 88.3981 541.89 89.1316 544.435 90.5304C546.804 91.9677 548.7 94.0692 549.885 96.5739C551.153 99.5417 551.807 102.736 551.807 105.963C551.807 109.19 551.153 112.384 549.885 115.352C548.716 117.862 546.824 119.966 544.452 121.395C541.944 122.858 539.081 123.602 536.177 123.545V123.545ZM536.177 117.873C537.703 117.908 539.205 117.493 540.496 116.681C541.817 115.751 542.806 114.423 543.32 112.891C544.054 110.719 544.391 108.432 544.314 106.14C544.388 103.797 544.048 101.459 543.312 99.2329C542.794 97.6706 541.8 96.3092 540.47 95.3393C539.175 94.5289 537.679 94.0991 536.151 94.0991C534.624 94.0991 533.127 94.5289 531.833 95.3393C530.497 96.3113 529.498 97.6754 528.974 99.2416C528.222 101.464 527.877 103.804 527.954 106.148C527.874 108.448 528.22 110.743 528.974 112.917C529.505 114.444 530.506 115.765 531.833 116.69C533.128 117.519 534.64 117.946 536.177 117.916V117.873Z" fill="black"/>
<path d="M557.943 123.096V88.9073H570.537C572.833 88.8664 575.113 89.3045 577.231 90.1937C578.627 90.8619 579.869 91.8114 580.881 92.9825C581.892 94.1536 582.65 95.521 583.108 96.9989C583.565 98.4769 583.712 100.033 583.539 101.571C583.366 103.108 582.877 104.593 582.102 105.932C581.075 107.553 579.599 108.84 577.853 109.636C575.835 110.534 573.643 110.973 571.435 110.923H564.905V123.096H557.943ZM564.853 105.553H571.271C572.057 105.582 572.841 105.449 573.573 105.162C574.306 104.875 574.972 104.441 575.529 103.886C576.072 103.347 576.499 102.703 576.784 101.994C577.069 101.284 577.207 100.524 577.188 99.7595C577.223 98.997 577.086 98.2362 576.787 97.5338C576.488 96.8313 576.034 96.2052 575.46 95.7018C574.274 94.6942 572.758 94.1593 571.202 94.1996H564.879L564.853 105.553Z" fill="black"/>
<path d="M588.796 123.096V88.9073H612.29V94.7177H595.75V103.023H610.114V108.747H595.706V117.208H612.549V123.096H588.796Z" fill="black"/>
<path d="M619.027 123.096V88.9073H633.461C635.762 88.8198 638.052 89.2629 640.155 90.2024C641.782 90.97 643.125 92.2334 643.99 93.8111C644.836 95.4509 645.261 97.2758 645.225 99.1207C645.264 100.681 644.969 102.233 644.361 103.671C643.856 104.844 643.108 105.897 642.167 106.761C641.275 107.567 640.275 108.244 639.196 108.773L645.536 123.096H638.367L632.778 109.93H625.868V123.096H619.027ZM625.937 104.603H632.26C633.859 104.689 635.43 104.158 636.648 103.118C637.179 102.634 637.6 102.041 637.88 101.379C638.161 100.718 638.294 100.003 638.272 99.2848C638.304 98.5848 638.181 97.8864 637.91 97.2399C637.64 96.5934 637.229 96.015 636.708 95.5465C635.608 94.6106 634.196 94.1209 632.752 94.1738H625.937V104.603Z" fill="black"/>
<path d="M90.1057 239C115.595 239.024 140.795 233.604 164.019 223.102C187.242 212.6 207.953 197.26 224.763 178.109V111.924C224.764 109.854 224.357 107.804 223.564 105.891C222.771 103.979 221.608 102.241 220.142 100.779L164.526 45.1878C163.646 44.308 162.526 43.7088 161.305 43.466C160.085 43.2231 158.82 43.3476 157.671 43.8236C156.521 44.2996 155.539 45.1058 154.848 46.1401C154.157 47.1744 153.789 48.3904 153.789 49.634V209.983C153.787 211.514 153.178 212.982 152.094 214.065C151.011 215.147 149.543 215.757 148.011 215.759H137.327C136.64 215.759 135.959 215.624 135.325 215.361C134.69 215.098 134.114 214.712 133.628 214.226C133.143 213.74 132.758 213.163 132.496 212.529C132.234 211.894 132.1 211.214 132.101 210.527V149.368C132.099 145.187 130.437 141.178 127.48 138.222L89.6133 100.373C88.7332 99.4914 87.6113 98.8907 86.3894 98.6468C85.1676 98.403 83.9009 98.5269 82.7496 99.0029C81.5982 99.4789 80.6141 100.286 79.9217 101.321C79.2293 102.356 78.8597 103.574 78.8597 104.819V181.415C78.8483 185.293 77.3022 189.008 74.5591 191.75C71.8159 194.492 68.0987 196.037 64.2193 196.049H63.0878V60.6849C63.0877 58.6139 62.6787 56.5634 61.8842 54.6508C61.0898 52.7382 59.9255 51.0011 58.4581 49.5391L10.7795 1.86512C9.89648 0.98214 8.77127 0.380778 7.54625 0.137114C6.32122 -0.10655 5.05142 0.0184346 3.89747 0.496253C2.74352 0.974071 1.75727 1.78325 1.06351 2.82143C0.369745 3.85962 -0.000358456 5.08015 2.60513e-07 6.32862V214.723C27.3502 230.658 58.4481 239.037 90.1057 239V239Z" fill="#00A39D"/>
<path fill-rule="evenodd" clip-rule="evenodd" d="M114.368 62.0227C114.368 61.3925 114.265 60.7795 114.17 60.1665C117.265 63.3623 121.313 65.4698 125.707 66.1732C130.101 66.8767 134.605 66.1384 138.544 64.0688C136.308 67.9697 135.415 72.4965 136.001 76.954C136.588 81.4115 138.622 85.5533 141.792 88.7433C140.021 88.391 138.213 88.2691 136.411 88.3807C132.937 88.6005 129.576 89.697 126.641 91.5676C123.706 93.4383 121.293 96.022 119.628 99.0775C118.999 94.8041 117.04 90.837 114.03 87.738C111.019 84.6391 107.11 82.5653 102.854 81.8106C106.52 80.0248 109.572 77.1902 111.622 73.6668C113.672 70.1434 114.628 66.0904 114.368 62.0227Z" fill="#F9AD3C"/>
<path d="M243.895 33.7914V203.275" stroke="#F9AD3C" stroke-width="4" stroke-miterlimit="10"/>
</svg>
